<svg xmlns="http://www.w3.org/2000/svg" width="128" height="128" viewBox="0 0 128 128" role="img" aria-label="Cute river Villager portrait">
<rect width="128" height="128" rx="24" fill="hsl(4 47% 86%)"/><circle cx="105" cy="25" r="17" fill="#fff9e9" opacity=".64"/><path d="M0 108 Q32 90 64 109 T128 105V128H0Z" fill="#80b4a3" opacity=".55"/>
<path d="M22 54 30 18 49 43M106 54 98 18 79 43" fill="hsl(219 48% 72%)" stroke="hsl(219 39% 55%)" stroke-width="3" stroke-linejoin="round"/><ellipse cx="64" cy="108" rx="43" ry="30" fill="hsl(219 39% 55%)"/><ellipse cx="64" cy="68" rx="43" ry="39" fill="hsl(219 48% 72%)" stroke="hsl(219 39% 55%)" stroke-width="3"/>
<ellipse cx="64" cy="78" rx="22" ry="17" fill="#fff3df" opacity=".83"/><ellipse cx="47" cy="66" rx="4" ry="5" fill="#2b4147"/><ellipse cx="81" cy="66" rx="4" ry="5" fill="#2b4147"/><circle cx="45" cy="64" r="1.4" fill="#fff"/><circle cx="79" cy="64" r="1.4" fill="#fff"/><path d="M61 77 Q64 81 67 77" fill="none" stroke="#6c5550" stroke-width="2" stroke-linecap="round"/><path d="M58 84 Q64 90 70 84" fill="none" stroke="#6c5550" stroke-width="2" stroke-linecap="round"/><ellipse cx="34" cy="80" rx="7" ry="4" fill="#e99b9b" opacity=".65"/><ellipse cx="94" cy="80" rx="7" ry="4" fill="#e99b9b" opacity=".65"/>
<path d="M30 101 Q64 113 98 101" fill="none" stroke="hsl(294 58% 62%)" stroke-width="12" stroke-linecap="round"/><circle cx="83" cy="105" r="5" fill="#fff8df"/></svg>